#!OML:ASF Y:\EmotionMaleHayes\Project 1\Capture day 1\Session 1\Male1.ASF
:FULLY-SPECIFIED
:DEGREES
577
root 27.383 16.0533 0.453188 -189.096 -16.4248 -167.312
lowerback 15.2104 0.250625 -13.234
upperback 2.58168 -3.76021 -8.87441
thorax -5.68468 -2.20639 -1.32455
lowerneck -25.3808 5.56726 6.78244
upperneck 26.1865 5.407 -2.30019
head 13.3118 2.53939 -1.05878
rclavicle 1.15295e-014 2.54444e-014
rhumerus 63.8405 41.3192 -32.0861
rradius 69.3658
rwrist -5.1482
rhand -11.9718 -21.8459
rfingers 7.12502
rthumb 14.0841 -51.3486
lclavicle 1.15295e-014 2.54444e-014
lhumerus -6.35351 -74.0322 96.9764
lradius 60.5012
lwrist -23.2383
lhand -24.3787 -44.577
lfingers 7.12502
lthumb 2.11157 -14.6077
rfemur -19.3827 -6.87653 5.74876
rtibia 59.0726
rfoot -3.09773 -9.53806
rtoes 35.5349
lfemur 11.9771 19.4694 -1.32121
ltibia 42.5001
lfoot -45.4212 26.7329
ltoes -2.44124
578
root 27.5768 15.9329 0.560259 -188.848 -18.4133 -166.12
lowerback 15.9576 0.468886 -12.0396
upperback 2.97359 -3.28506 -8.65342
thorax -5.7347 -1.98003 -1.80885
lowerneck -25.7867 4.63075 6.10212
upperneck 25.7955 4.15029 -1.57531
head 13.1249 2.05074 -0.891283
rclavicle -3.97569e-016 7.31528e-014
rhumerus 61.17 42.5026 -34.1704
rradius 68.9741
rwrist -3.94903
rhand -12.1213 -21.8563
rfingers 7.12502
rthumb 13.9401 -51.3689
lclavicle -3.97569e-016 7.31528e-014
lhumerus -8.21474 -74.0401 99.5113
lradius 59.035
lwrist -23.3968
lhand -23.6695 -43.7114
lfingers 7.12502
lthumb 2.79659 -13.75
rfemur -20.0972 -6.17212 5.47094
rtibia 60.1815
rfoot -2.35136 -9.5456
rtoes 35.1458
lfemur 9.29569 18.1574 -0.3841
ltibia 44.1598
lfoot -46.1056 25.6843
ltoes -4.27671
579
root 27.7645 15.8235 0.659501 -188.609 -20.2568 -165.348
lowerback 16.7318 0.806361 -10.9537
upperback 3.34663 -2.74414 -8.67243
thorax -5.82166 -1.74204 -2.5241
lowerneck -25.8629 3.57807 5.21788
upperneck 25.0527 2.72349 -0.448824
head 12.7388 1.52016 -0.569704
rclavicle -3.18055e-015 -3.81667e-014
rhumerus 57.6297 43.5949 -37.2883
rradius 68.607
rwrist -3.01438
rhand -12.5425 -22.0205
rfingers 7.12502
rthumb 13.5342 -51.5606
lclavicle -3.18055e-015 -3.81667e-014
lhumerus -10.2047 -73.8405 101.193
lradius 58.3707
lwrist -23.1157
lhand -22.8992 -42.3977
lfingers 7.12502
lthumb 3.54043 -12.4474
rfemur -20.5903 -5.22723 4.76206
rtibia 61.2252
rfoot -1.33905 -9.49696
rtoes 36.1789
lfemur 6.43434 16.9391 0.254761
ltibia 46.3517
lfoot -45.8397 24.1642
ltoes -4.42566
580
root 27.9448 15.7237 0.750869 -188.247 -21.9344 -164.973
lowerback 17.3622 1.16314 -10.3767
upperback 3.72815 -2.25571 -8.69289
thorax -5.78294 -1.5325 -2.96554
lowerneck -25.8046 2.66858 4.51294
upperneck 24.0949 1.50578 0.508272
head 12.2913 1.06343 -0.306648
rclavicle 4.69132e-014 -5.725e-014
rhumerus 54.0619 44.6552 -40.7114
rradius 68.1459
rwrist -2.03517
rhand -13.0272 -22.482
rfingers 7.12502
rthumb 13.067 -52.0527
lclavicle 4.69132e-014 -5.725e-014
lhumerus -11.6577 -72.7917 101.886
lradius 58.0838
lwrist -22.9502
lhand -22.2503 -40.8011
lfingers 7.12502
lthumb 4.16711 -10.8621
rfemur -20.9815 -4.15522 3.63983
rtibia 62.2143
rfoot -0.0793619 -9.05882
rtoes 36.333
lfemur 3.03988 16.34 0.708651
ltibia 49.5517
lfoot -45.1153 22.5886
ltoes -4.78152
581
root 28.1477 15.6369 0.84271 -188.014 -23.5679 -163.994
lowerback 18.0115 1.37553 -9.80178
upperback 4.06685 -1.86776 -8.3369
thorax -5.76892 -1.33937 -2.97984
lowerneck -25.7582 1.92918 3.81015
upperneck 22.9944 0.562421 1.40454
head 11.827 0.708649 -0.0198121
rclavicle 5.56597e-014 5.40694e-014
rhumerus 51.1278 45.8131 -44.5528
rradius 66.7756
rwrist -0.772658
rhand -13.5723 -23.1716
rfingers 7.12502
rthumb 12.5415 -52.7752
lclavicle 5.56597e-014 5.40694e-014
lhumerus -12.361 -70.8139 101.792
lradius 57.6492
lwrist -23.1516
lhand -21.8749 -39.5017
lfingers 7.12502
lthumb 4.52952 -9.57015
rfemur -21.5291 -3.04356 3.44932
rtibia 63.2942
rfoot 1.1646 -8.58849
rtoes 34.6106
lfemur -1.05477 16.485 2.00461
ltibia 53.5437
lfoot -43.8716 22.1812
ltoes -8.28698
582
root 28.3346 15.5764 0.91356 -187.175 -24.8991 -164.322
lowerback 18.3451 2.03854 -10.3966
upperback 4.3875 -1.17023 -8.24537
thorax -5.59761 -1.02357 -2.71192
lowerneck -25.8262 1.02719 2.98989
upperneck 21.9675 -0.570832 2.33916
head 11.4384 0.254931 0.26639
rclavicle 3.33958e-014 9.54166e-015
rhumerus 46.9855 46.4206 -48.7916
rradius 65.8127
rwrist 0.158112
rhand -14.3986 -24.0143
rfingers 7.12502
rthumb 11.7448 -53.665
lclavicle 3.33958e-014 9.54166e-015
lhumerus -12.4728 -69.2387 101.069
lradius 57.1848
lwrist -22.3814
lhand -21.6986 -38.3256
lfingers 7.12502
lthumb 4.6998 -8.3977
rfemur -22.2141 -1.6697 2.05672
rtibia 64.4135
rfoot 2.37528 -7.84242
rtoes 32.7746
lfemur -4.62573 16.9846 1.84845
ltibia 56.7282
lfoot -42.9828 21.7966
ltoes -9.47449
583
root 28.5161 15.5208 0.975089 -186.509 -26.4518 -164.228
lowerback 18.7694 2.70017 -10.1909
upperback 4.67831 -0.308761 -8.11567
thorax -5.52513 -0.622065 -2.89078
lowerneck -25.7393 -0.142519 2.16662
upperneck 21.0398 -2.01941 3.11376
head 11.0881 -0.37263 0.439762
rclavicle -4.29375e-014 -1.17681e-013
rhumerus 42.0658 46.2966 -53.9855
rradius 64.2285
rwrist 0.962325
rhand -15.442 -25.1257
rfingers 7.12502
rthumb 10.7385 -54.8313
lclavicle -4.29375e-014 -1.17681e-013
lhumerus -12.2488 -68.4412 99.8214
lradius 57.1586
lwrist -20.3565
lhand -21.655 -37.0516
lfingers 7.12502
lthumb 4.74193 -7.12466
rfemur -22.5445 -0.520801 1.06236
rtibia 65.3974
rfoot 3.61343 -7.36797
rtoes 33.3859
lfemur -7.99013 17.2505 1.96291
ltibia 59.3398
lfoot -42.4277 20.843
ltoes -8.46603
584
root 28.7015 15.4698 1.0282 -186.033 -27.9344 -163.746
lowerback 19.2676 3.25974 -9.57706
upperback 4.86633 0.516822 -7.89919
thorax -5.59251 -0.221188 -3.20504
lowerneck -25.4593 -1.30029 1.33784
upperneck 20.2432 -3.4312 3.82771
head 10.7807 -1.00222 0.600482
rclavicle -5.24792e-014 -5.40694e-014
rhumerus 36.4469 45.7493 -59.8599
rradius 62.6727
rwrist 1.34992
rhand -17.0131 -25.8456
rfingers 7.12502
rthumb 9.22274 -55.6239
lclavicle -5.24792e-014 -5.40694e-014
lhumerus -12.3642 -67.0195 98.7432
lradius 57.1137
lwrist -18.2372
lhand -22.0176 -36.1601
lfingers 7.12502
lthumb 4.39177 -6.22562
rfemur -22.8341 0.567592 0.605463
rtibia 66.4257
rfoot 4.94574 -7.2641
rtoes 35.3385
lfemur -11.1702 17.6612 2.54547
ltibia 61.5925
lfoot -41.9878 19.8175
ltoes -7.6286
585
root 28.8744 15.4232 1.06629 -186.07 -29.1707 -162.829
lowerback 19.8821 3.71821 -8.46471
upperback 5.05061 1.31958 -7.61101
thorax -5.69974 0.171787 -3.72807
lowerneck -24.8506 -2.40793 0.30945
upperneck 19.3691 -4.73609 4.72159
head 10.4225 -1.59159 0.8799
rclavicle -6.36111e-014 -1.20861e-013
rhumerus 30.733 44.7795 -65.8375
rradius 60.9805
rwrist 0.922306
rhand -18.9972 -25.2561
rfingers 7.12502
rthumb 7.30788 -55.1099
lclavicle -6.36111e-014 -1.20861e-013
lhumerus -12.743 -64.7481 97.7938
lradius 56.6052
lwrist -15.98
lhand -22.7699 -35.7973
lfingers 7.12502
lthumb 3.66526 -5.84908
rfemur -22.6877 1.75457 0.763521
rtibia 67.2905
rfoot 6.00565 -7.13497
rtoes 35.8545
lfemur -13.4721 18.1037 3.74786
ltibia 63.0062
lfoot -41.5027 18.8999
ltoes -8.06518
586
root 29.034 15.3812 1.09224 -186.145 -30.2725 -162.142
lowerback 20.3244 4.17566 -7.4724
upperback 5.34352 2.11012 -7.37959
thorax -5.57584 0.54554 -4.24165
lowerneck -24.1094 -3.44104 -0.658751
upperneck 18.354 -5.94815 5.60241
head 10.0177 -2.1494 1.16301
rclavicle -2.54444e-014 1.27222e-013
rhumerus 25.5173 43.3293 -71.1343
rradius 59.3052
rwrist -0.288309
rhand -20.9607 -24.5646
rfingers 7.12502
rthumb 5.41229 -54.4754
lclavicle -2.54444e-014 1.27222e-013
lhumerus -12.5437 -61.7218 96.1546
lradius 55.9502
lwrist -14.0304
lhand -23.2424 -35.4782
lfingers 7.12502
lthumb 3.20902 -5.52257
rfemur -22.3387 2.92245 0.799211
rtibia 68.1173
rfoot 6.64966 -7.10601
rtoes 36.3076
lfemur -15.0062 18.4405 4.73989
ltibia 63.4843
lfoot -41.049 18.4586
ltoes -9.867
587
root 29.1882 15.3433 1.11088 -186.054 -31.3053 -161.767
lowerback 20.5892 4.6919 -6.87952
upperback 5.69304 2.89583 -7.20672
thorax -5.29299 0.911073 -4.58588
lowerneck -23.7341 -4.33845 -1.01426
upperneck 17.5834 -7.1271 6.14091
head 9.75582 -2.68418 1.22956
rclavicle 1.35174e-013 -5.725e-014
rhumerus 20.7193 41.4007 -75.7591
rradius 57.938
rwrist -2.03894
rhand -23.0876 -25.0077
rfingers 7.12502
rthumb 3.35853 -54.961
lclavicle 1.35174e-013 -5.725e-014
lhumerus -12.0721 -57.8927 94.1822
lradius 55.2744
lwrist -12.8718
lhand -23.3587 -35.2092
lfingers 7.12502
lthumb 3.09673 -5.25197
rfemur -22.0694 3.81588 0.632813
rtibia 69.0572
rfoot 7.04936 -6.86179
rtoes 36.0702
lfemur -16.1425 18.6772 5.4493
ltibia 63.3389
lfoot -40.746 18.0898
ltoes -10.802
588
root 29.3433 15.3075 1.12591 -185.927 -32.4086 -161.366
lowerback 21.0432 4.98171 -6.23267
upperback 5.86953 3.39059 -6.99828
thorax -5.29329 1.15156 -4.87038
lowerneck -23.4225 -5.0774 -1.44415
upperneck 17.1239 -8.07506 6.63654
head 9.61916 -3.11623 1.3288
rclavicle 2.70347e-014 9.54166e-014
rhumerus 16.1044 39.3462 -80.1713
rradius 56.6043
rwrist -3.86326
rhand -24.7445 -25.5829
rfingers 7.12502
rthumb 1.75834 -55.5554
lclavicle 2.70347e-014 9.54166e-014
lhumerus -11.6747 -53.018 92.1404
lradius 54.503
lwrist -12.0048
lhand -23.5444 -34.8566
lfingers 7.12502
lthumb 2.91734 -4.89683
rfemur -21.8159 4.40037 0.54891
rtibia 70.0919
rfoot 6.86729 -6.48257
rtoes 35.4645
lfemur -17.2575 18.6452 6.17034
ltibia 63.0272
lfoot -40.6748 17.0565
ltoes -9.99996
589
root 29.491 15.2718 1.13256 -185.55 -33.3321 -161.231
lowerback 21.4101 5.2643 -5.8998
upperback 5.8792 3.83066 -6.76158
thorax -5.4477 1.37496 -4.93979
lowerneck -22.9932 -5.72111 -1.96759
upperneck 16.8847 -8.84735 7.00352
head 9.53754 -3.48413 1.4276
rclavicle 1.27222e-014 6.67916e-014
rhumerus 11.5772 36.9947 -84.3676
rradius 55.0807
rwrist -5.47794
rhand -25.8679 -25.605
rfingers 7.12502
rthumb 0.673357 -55.5837
lclavicle 1.27222e-014 6.67916e-014
lhumerus -11.4193 -47.5627 90.1133
lradius 53.6093
lwrist -11.4808
lhand -24.173 -33.9081
lfingers 7.12502
lthumb 2.31032 -3.94086
rfemur -21.7394 4.86581 0.200845
rtibia 71.1913
rfoot 6.74305 -6.71198
rtoes 36.4986
lfemur -18.3417 18.5096 6.64365
ltibia 62.7637
lfoot -39.4781 17.0242
ltoes -14.8517
590
root 29.6416 15.2394 1.13475 -184.88 -34.2405 -161.425
lowerback 21.6613 5.4969 -5.96098
upperback 5.83297 4.13506 -6.52431
thorax -5.63674 1.535 -4.74923
lowerneck -22.1547 -6.28391 -2.69343
upperneck 16.4563 -9.45891 7.47625
head 9.33327 -3.79649 1.63034
rclavicle 0 6.99722e-014
rhumerus 7.25934 34.4691 -88.0745
rradius 53.6734
rwrist -6.91004
rhand -27.0352 -26.0228
rfingers 7.12502
rthumb -0.454053 -56.002
lclavicle 0 6.99722e-014
lhumerus -11.3174 -41.262 88.1588
lradius 52.5798
lwrist -11.3675
lhand -24.7117 -32.7363
lfingers 7.12502
lthumb 1.78999 -2.76405
rfemur -21.8926 4.97976 -0.42665
rtibia 72.4113
rfoot 6.57981 -6.93463
rtoes 37.4044
lfemur -19.7714 18.2706 6.74052
ltibia 62.9081
lfoot -38.7407 16.338
ltoes -17.8785
591
root 29.7951 15.2115 1.13018 -184.099 -35.1611 -161.687
lowerback 21.7819 5.60704 -6.05663
upperback 5.79643 4.28719 -6.32282
thorax -5.75565 1.62209 -4.52816
lowerneck -24.1579 -7.03801 -2.28664
upperneck 19.3275 -10.4984 6.01286
head 10.6485 -4.26221 0.81752
rclavicle 2.8625e-014 1.87653e-013
rhumerus 3.36983 31.8439 -91.3544
rradius 52.4036
rwrist -8.40113
rhand -27.9891 -27.3978
rfingers 7.12502
rthumb -1.37536 -57.3731
lclavicle 2.8625e-014 1.87653e-013
lhumerus -11.0517 -34.0666 85.9122
lradius 51.354
lwrist -11.5772
lhand -24.4765 -31.1343
lfingers 7.12502
lthumb 2.01716 -1.16407
rfemur -22.2006 4.82382 -0.984915
rtibia 73.7501
rfoot 6.50469 -7.11426
rtoes 37.3771
lfemur -21.5531 18.2021 6.73294
ltibia 63.4427
lfoot -38.3268 15.1669
ltoes -18.4505
